<svg width="16" height="16" viewBox="0 0 16 16" fill="none" xmlns="http://www.w3.org/2000/svg">
<g id="arrow-up-circle">
<path id="Union" fill-rule="evenodd" clip-rule="evenodd" d="M1 8C1 11.866 4.13401 15 8 15C11.866 15 15 11.866 15 8C15 4.13401 11.866 1 8 1C4.13401 1 1 4.13401 1 8ZM16 8C16 12.4183 12.4183 16 8 16C3.58172 16 0 12.4183 0 8C0 3.58172 3.58172 0 8 0C12.4183 0 16 3.58172 16 8ZM8.5 11.5C8.5 11.7761 8.27614 12 8 12C7.72386 12 7.5 11.7761 7.5 11.5V5.70711L5.35355 7.85355C5.15829 8.04882 4.84171 8.04882 4.64645 7.85355C4.45118 7.65829 4.45118 7.34171 4.64645 7.14645L7.64645 4.14645C7.84171 3.95118 8.15829 3.95118 8.35355 4.14645L11.3536 7.14645C11.5488 7.34171 11.5488 7.65829 11.3536 7.85355C11.1583 8.04882 10.8417 8.04882 10.6464 7.85355L8.5 5.70711V11.5Z" fill="black"/>
</g>
</svg>
