<svg width="16" height="16" viewBox="0 0 16 16" fill="none" xmlns="http://www.w3.org/2000/svg">
<g id="arrow-up-square">
<path id="Union" fill-rule="evenodd" clip-rule="evenodd" d="M15 2C15 1.44772 14.5523 1 14 1H2C1.44772 1 1 1.44772 1 2V14C1 14.5523 1.44772 15 2 15H14C14.5523 15 15 14.5523 15 14V2ZM0 2C0 0.895431 0.895431 0 2 0H14C15.1046 0 16 0.895431 16 2V14C16 15.1046 15.1046 16 14 16H2C0.895431 16 0 15.1046 0 14V2ZM8.5 11.5C8.5 11.7761 8.27614 12 8 12C7.72386 12 7.5 11.7761 7.5 11.5V5.70711L5.35355 7.85355C5.15829 8.04882 4.84171 8.04882 4.64645 7.85355C4.45118 7.65829 4.45118 7.34171 4.64645 7.14645L7.64645 4.14645C7.84171 3.95118 8.15829 3.95118 8.35355 4.14645L11.3536 7.14645C11.5488 7.34171 11.5488 7.65829 11.3536 7.85355C11.1583 8.04882 10.8417 8.04882 10.6464 7.85355L8.5 5.70711V11.5Z" fill="black"/>
</g>
</svg>
