<svg width="16" height="16" viewBox="0 0 16 16" fill="none" xmlns="http://www.w3.org/2000/svg">
<g id="arrow-down-circle">
<path id="Union" fill-rule="evenodd" clip-rule="evenodd" d="M1 8C1 11.866 4.13401 15 8 15C11.866 15 15 11.866 15 8C15 4.13401 11.866 1 8 1C4.13401 1 1 4.13401 1 8ZM16 8C16 12.4183 12.4183 16 8 16C3.58172 16 0 12.4183 0 8C0 3.58172 3.58172 0 8 0C12.4183 0 16 3.58172 16 8ZM8.5 4.5C8.5 4.22386 8.27614 4 8 4C7.72386 4 7.5 4.22386 7.5 4.5V10.2929L5.35355 8.14645C5.15829 7.95118 4.84171 7.95118 4.64645 8.14645C4.45118 8.34171 4.45118 8.65829 4.64645 8.85355L7.64645 11.8536C7.84171 12.0488 8.15829 12.0488 8.35355 11.8536L11.3536 8.85355C11.5488 8.65829 11.5488 8.34171 11.3536 8.14645C11.1583 7.95118 10.8417 7.95118 10.6464 8.14645L8.5 10.2929V4.5Z" fill="black"/>
</g>
</svg>
