<svg width="16" height="16" viewBox="0 0 16 16" fill="none" xmlns="http://www.w3.org/2000/svg">
<g id="arrow-down-square">
<path id="Union" fill-rule="evenodd" clip-rule="evenodd" d="M15 2C15 1.44772 14.5523 1 14 1H2C1.44772 1 1 1.44772 1 2V14C1 14.5523 1.44772 15 2 15H14C14.5523 15 15 14.5523 15 14V2ZM0 2C0 0.895431 0.895431 0 2 0H14C15.1046 0 16 0.895431 16 2V14C16 15.1046 15.1046 16 14 16H2C0.895431 16 0 15.1046 0 14V2ZM8.5 4.5C8.5 4.22386 8.27614 4 8 4C7.72386 4 7.5 4.22386 7.5 4.5V10.2929L5.35355 8.14645C5.15829 7.95118 4.84171 7.95118 4.64645 8.14645C4.45118 8.34171 4.45118 8.65829 4.64645 8.85355L7.64645 11.8536C7.84171 12.0488 8.15829 12.0488 8.35355 11.8536L11.3536 8.85355C11.5488 8.65829 11.5488 8.34171 11.3536 8.14645C11.1583 7.95118 10.8417 7.95118 10.6464 8.14645L8.5 10.2929V4.5Z" fill="black"/>
</g>
</svg>
